<?xml version="1.0" encoding="UTF-8" standalone="no"?>
<!-- Created with Inkscape (http://www.inkscape.org/) -->

<svg
   xmlns:dc="http://purl.org/dc/elements/1.1/"
   xmlns:cc="http://creativecommons.org/ns#"
   xmlns:rdf="http://www.w3.org/1999/02/22-rdf-syntax-ns#"
   xmlns:svg="http://www.w3.org/2000/svg"
   xmlns="http://www.w3.org/2000/svg"
   xmlns:sodipodi="http://sodipodi.sourceforge.net/DTD/sodipodi-0.dtd"
   xmlns:inkscape="http://www.inkscape.org/namespaces/inkscape"
   width="256mm"
   height="256mm"
   viewBox="0 0 907.08661 907.08661"
   id="svg9227"
   version="1.1"
   inkscape:version="0.91 r13725"
   sodipodi:docname="logo.svg">
  <defs
     id="defs9229">
    <clipPath
       clipPathUnits="userSpaceOnUse"
       id="clipPath4223">
      <path
         d="m 5058.22,5191.36 c -32.76,-21.01 -62.5,-32.26 -94.3,-43.01 -31.42,-10.16 -63.06,-17.44 -94.77,-22.41 -63.54,-9.91 -126.82,-11.27 -189.98,-5.54 -62.98,6.47 -124.52,20.68 -185.12,38.12 -60.64,17.64 -120.45,38.45 -179.24,62.89 60.18,-18.61 120.98,-33.47 182.12,-45.03 61.11,-11.37 122.65,-19.37 183.73,-19.66 60.9,0.41 122.31,8.22 181.52,23.6 29.62,7.71 58.8,17.55 86.99,29.81 27.57,12.02 56.77,27.49 78.38,44.39 l 1.3,1.02 c 14.04,11 32.49,5.89 41.23,-11.4 8.76,-17.29 4.45,-40.2 -9.57,-51.18 l -2.29,-1.6 z"
         id="path4225"
         inkscape:connector-curvature="0" />
    </clipPath>
    <clipPath
       clipPathUnits="userSpaceOnUse"
       id="clipPath4207">
      <path
         d="m 3138.51,5041.7 c 10.58,16.09 18.01,24.74 27.12,35.64 8.71,10.14 17.59,19.68 26.62,28.75 18.16,18.09 36.9,34.41 56.19,49.38 38.57,29.86 79.16,54.13 120.69,73.87 83.25,39.36 170.13,60.18 256.29,68.17 172.49,16.71 343.03,-20.52 502.29,-70.24 160.63,-45.59 320.82,-93.48 482.6,-127.78 80.84,-16.44 162.5,-29.23 244.39,-25.94 81.86,2.64 163.24,26.79 239.21,67.29 -73.73,-46.02 -154.86,-76.82 -238.34,-85.73 -83.41,-9.64 -167.14,-2.8 -249.7,7.72 -165.21,22.42 -328.01,58.38 -490.91,91.89 -81.93,17.55 -161.09,34.55 -241.7,40.65 -80.26,6.54 -160.63,4.9 -238.98,-8.3 -78.26,-13.12 -154.62,-37.85 -224.23,-76.98 -34.73,-19.56 -67.83,-42.64 -97.97,-69.28 -15.03,-13.34 -29.35,-27.56 -42.57,-42.54 -6.59,-7.45 -12.9,-15.15 -18.77,-22.87 -5.39,-7.1 -12.14,-16.95 -14.22,-20.86 -18.1,-34.8 -55.87,-45.42 -84.4,-23.73 -28.51,21.67 -36.9,67.43 -18.81,102.23 1.23,2.31 2.53,4.53 3.86,6.65 l 1.34,2.01 z"
         id="path4209"
         inkscape:connector-curvature="0" />
    </clipPath>
  </defs>
  <sodipodi:namedview
     id="base"
     pagecolor="#ffffff"
     bordercolor="#666666"
     borderopacity="1.0"
     inkscape:pageopacity="0.0"
     inkscape:pageshadow="2"
     inkscape:zoom="0.35"
     inkscape:cx="159.29791"
     inkscape:cy="748.57143"
     inkscape:document-units="px"
     inkscape:current-layer="layer1"
     showgrid="false"
     inkscape:window-width="1543"
     inkscape:window-height="876"
     inkscape:window-x="57"
     inkscape:window-y="0"
     inkscape:window-maximized="1" />
  <metadata
     id="metadata9232">
    <rdf:RDF>
      <cc:Work
         rdf:about="">
        <dc:format>image/svg+xml</dc:format>
        <dc:type
           rdf:resource="http://purl.org/dc/dcmitype/StillImage" />
        <dc:title></dc:title>
      </cc:Work>
    </rdf:RDF>
  </metadata>
  <g
     inkscape:label="Layer 1"
     inkscape:groupmode="layer"
     id="layer1"
     transform="translate(0,-145.27559)">
    <g
       id="g4203"
       transform="matrix(0.43664173,0,0,-2.2671085,-1338.9484,12178.274)"
       style="opacity:1;stroke:#ada5bc;stroke-opacity:1">
      <g
         id="g4205"
         clip-path="url(#clipPath4207)"
         style="opacity:0.97100004;fill:#008000;stroke:#ada5bc;stroke-opacity:1">
        <path
           d="m 3138.51,5041.7 c 10.58,16.09 18.01,24.74 27.12,35.64 8.71,10.14 17.59,19.68 26.62,28.75 18.16,18.09 36.9,34.41 56.19,49.38 38.57,29.86 79.16,54.13 120.69,73.87 83.25,39.36 170.13,60.18 256.29,68.17 172.49,16.71 343.03,-20.52 502.29,-70.24 160.63,-45.59 320.82,-93.48 482.6,-127.78 80.84,-16.44 162.5,-29.23 244.39,-25.94 81.86,2.64 163.24,26.79 239.21,67.29 -73.73,-46.02 -154.86,-76.82 -238.34,-85.73 -83.41,-9.64 -167.14,-2.8 -249.7,7.72 -165.21,22.42 -328.01,58.38 -490.91,91.89 -81.93,17.55 -161.09,34.55 -241.7,40.65 -80.26,6.54 -160.63,4.9 -238.98,-8.3 -78.26,-13.12 -154.62,-37.85 -224.23,-76.98 -34.73,-19.56 -67.83,-42.64 -97.97,-69.28 -15.03,-13.34 -29.35,-27.56 -42.57,-42.54 -6.59,-7.45 -12.9,-15.15 -18.77,-22.87 -5.39,-7.1 -12.14,-16.95 -14.22,-20.86 -18.1,-34.8 -55.87,-45.42 -84.4,-23.73 -28.51,21.67 -36.9,67.43 -18.81,102.23 1.23,2.31 2.53,4.53 3.86,6.65 l 1.34,2.01"
           style="fill:#008000;fill-opacity:1;fill-rule:nonzero;stroke:#ada5bc;stroke-opacity:1"
           id="path4217"
           inkscape:connector-curvature="0" />
      </g>
    </g>
    <g
       id="g4219"
       transform="matrix(0.43664173,0,0,-2.2671085,-1338.9484,12178.274)"
       style="fill:#d40000">
      <g
         id="g4221"
         clip-path="url(#clipPath4223)"
         style="fill:#d40000">
        <path
           d="m 5058.22,5191.36 c -32.76,-21.01 -62.5,-32.26 -94.3,-43.01 -31.42,-10.16 -63.06,-17.44 -94.77,-22.41 -63.54,-9.91 -126.82,-11.27 -189.98,-5.54 -62.98,6.47 -124.52,20.68 -185.12,38.12 -60.64,17.64 -120.45,38.45 -179.24,62.89 60.18,-18.61 120.98,-33.47 182.12,-45.03 61.11,-11.37 122.65,-19.37 183.73,-19.66 60.9,0.41 122.31,8.22 181.52,23.6 29.62,7.71 58.8,17.55 86.99,29.81 27.57,12.02 56.77,27.49 78.38,44.39 l 1.3,1.02 c 14.04,11 32.49,5.89 41.23,-11.4 8.76,-17.29 4.45,-40.2 -9.57,-51.18 l -2.29,-1.6"
           style="fill:#d40000;fill-opacity:1;fill-rule:nonzero;stroke:none"
           id="path4233"
           inkscape:connector-curvature="0" />
      </g>
    </g>
  </g>
</svg>
