<?xml version="1.0" standalone="no"?>
<!DOCTYPE svg PUBLIC "-//W3C//DTD SVG 20010904//EN"
 "http://www.w3.org/TR/2001/REC-SVG-20010904/DTD/svg10.dtd">
<svg version="1.0" xmlns="http://www.w3.org/2000/svg"
 width="700.000000pt" height="700.000000pt" viewBox="0 0 700.000000 700.000000"
 preserveAspectRatio="xMidYMid meet">
<metadata>
Created by potrace 1.11, written by Peter Selinger 2001-2013
</metadata>
<g transform="translate(0.000000,700.000000) scale(0.100000,-0.100000)"
fill="#000000" stroke="none">
<path d="M2000 6867 c-166 -51 -344 -180 -479 -347 -20 -25 -44 -54 -54 -64
-23 -27 -120 -172 -169 -255 -41 -70 -188 -362 -225 -446 -82 -190 -244 -635
-268 -735 -2 -8 -14 -51 -28 -95 -42 -136 -133 -459 -153 -545 -40 -177 -96
-414 -104 -445 -13 -52 -97 -469 -104 -519 -4 -21 -8 -41 -10 -45 -2 -3 -7
-28 -10 -56 -4 -27 -11 -69 -17 -93 -5 -23 -12 -59 -15 -80 -3 -20 -11 -73
-19 -117 -8 -44 -16 -96 -19 -115 -3 -19 -12 -73 -20 -120 -8 -47 -18 -109
-21 -139 -4 -30 -8 -61 -10 -70 -1 -9 -6 -41 -9 -72 -4 -31 -8 -65 -10 -76 -2
-10 -7 -46 -11 -78 -4 -33 -9 -67 -10 -76 -2 -8 -6 -53 -10 -100 -4 -46 -8
-100 -10 -119 -23 -231 -23 -950 0 -1125 2 -16 7 -64 10 -105 3 -41 10 -106
16 -145 5 -38 12 -85 14 -104 2 -18 7 -41 9 -50 3 -9 8 -32 11 -51 9 -55 37
-154 46 -164 5 -6 9 -18 9 -27 0 -10 12 -31 26 -49 30 -35 56 -34 86 4 17 20
63 148 73 204 3 15 7 38 10 52 13 64 25 139 29 180 3 25 7 59 10 75 2 17 7 50
10 75 3 25 8 63 11 85 2 22 14 108 26 190 11 83 22 164 23 180 2 17 6 41 9 55
4 14 9 43 12 65 3 22 10 65 15 95 11 66 17 102 25 154 4 21 9 48 11 60 2 11 7
35 9 51 6 29 34 184 40 215 2 8 13 62 25 120 24 114 27 128 36 180 12 62 18
93 39 175 9 33 18 74 21 90 3 17 10 48 16 70 5 22 12 47 13 55 9 42 91 350
122 455 19 66 38 134 43 151 4 18 10 37 14 43 4 6 9 19 11 28 9 42 122 369
153 443 5 14 29 72 52 130 37 94 116 269 140 311 5 9 28 52 51 95 23 44 49 87
57 97 8 9 11 17 7 17 -4 0 0 9 9 19 10 11 25 33 34 50 9 17 49 75 89 128 327
443 690 567 1089 371 122 -60 281 -185 449 -354 83 -83 163 -166 179 -185 25
-30 152 -169 241 -265 17 -17 75 -80 130 -140 55 -59 114 -122 130 -139 17
-18 95 -101 175 -186 238 -252 583 -594 706 -699 16 -14 59 -50 94 -81 202
-173 368 -289 525 -364 143 -68 225 -89 345 -89 165 0 283 54 421 194 175 177
343 490 519 966 57 154 91 256 86 261 -2 2 -11 -18 -21 -44 -63 -167 -178
-407 -257 -536 -26 -43 -48 -80 -48 -83 0 -10 -117 -155 -167 -207 -170 -174
-351 -205 -581 -101 -29 13 -55 24 -58 24 -3 0 -10 4 -17 10 -7 5 -52 39 -102
76 -49 36 -91 70 -93 75 -2 5 -8 9 -13 9 -12 0 -212 201 -293 295 -37 44 -80
94 -95 110 -38 44 -112 135 -142 175 -15 19 -35 45 -45 57 -35 39 -49 58 -104
133 -30 41 -59 80 -65 86 -5 6 -18 22 -27 35 -10 13 -44 60 -76 104 -169 232
-156 214 -503 720 -197 287 -448 660 -671 1000 -94 142 -259 372 -277 385 -4
3 -14 14 -22 26 -48 70 -280 311 -349 363 -19 14 -41 32 -49 39 -57 54 -211
139 -323 178 -109 38 -275 43 -378 11z"/>
<path d="M6646 6168 c-8 -13 -40 -113 -71 -222 -175 -617 -402 -1072 -670
-1342 -339 -344 -644 -320 -1066 84 -179 172 -350 378 -521 632 -43 62 -78
110 -78 106 0 -17 228 -459 322 -623 350 -614 652 -978 901 -1087 134 -59 287
-62 419 -7 308 129 576 513 783 1122 59 174 81 288 91 484 11 215 6 490 -12
623 -19 140 -37 214 -60 237 -20 19 -21 19 -38 -7z"/>
</g>
</svg>
